# xmcd CD database file
#
# Track frame offsets:
#	150
#	13317
#	28166
#	50233
#	69694
#	87793
#	101099
#	115506
#	128262
#	140610
#	156937
#	170628
#	186737
#	201085
#	217546
#	235167
#	247577
#	262926
#	281860
#	294889
#	309458
#
# Disc length: 4331 seconds
#
# Revision: 2
# Processed by: cddbd v1.4PL0 Copyright (c) Steve Scherf et al.
# Submitted via: CDex 1.40Beta8
#
DISCID=2d10e915
DTITLE=Chris Isaak - Best
DYEAR=1900
DGENRE=Blues
TTITLE0=Baby did a bad bad thing '99
TTITLE1=Blue hotel
TTITLE2=Wicked game
TTITLE3=Lie to me
TTITLE4=Blue Spanish sky
TTITLE5=Only the lonely
TTITLE6=Pretty girls don't cry
TTITLE7=Somebody's crying
TTITLE8=Voodoo
TTITLE9=Please
TTITLE10=San Francisco days
TTITLE11=Speak of a devil
TTITLE12=I want your love
TTITLE13=Two hearts
TTITLE14=Beautiful homes
TTITLE15=Forever blue
TTITLE16=Heart full of soul
TTITLE17=Nothing's changing
TTITLE18=Like the way the moves
TTITLE19=Lonely with broken heart
TTITLE20=Heart-shaped world
EXTD=ID3G: 0
EXTT0=
EXTT1=
EXTT2=
EXTT3=
EXTT4=
EXTT5=
EXTT6=
EXTT7=
EXTT8=
EXTT9=
EXTT10=
EXTT11=
EXTT12=
EXTT13=
EXTT14=
EXTT15=
EXTT16=
EXTT17=
EXTT18=
EXTT19=
EXTT20=
PLAYORDER=
